<svg width="85" height="93" viewBox="0 0 85 93" fill="none" xmlns="http://www.w3.org/2000/svg">
<g clip-path="url(#clip0_24_42)">
<path fill-rule="evenodd" clip-rule="evenodd" d="M45.4158 68.2084V86.8107C45.4158 90.7083 43.8254 92.3914 39.6725 92.3914H36.9335V88.3166H39.3191C40.5561 88.3166 41.0863 87.8737 41.0863 86.7221V68.2084H45.4158ZM17.9366 68.1198V84.419C17.9366 88.9367 14.4906 92.3028 9.45424 92.3028C6.18501 92.3028 3.26922 91.1512 1.32535 89.1138L4.24115 86.3678C5.47816 87.6079 6.98024 88.3166 9.36589 88.3166C11.8399 88.3166 13.6954 86.7221 13.6954 84.5961V83.0016H13.607C12.5468 84.2418 10.6913 84.9505 8.48232 84.9505C3.62265 84.9505 -0.0883789 81.4072 -0.0883789 76.5351C-0.0883789 71.8403 3.44592 68.297 8.30559 68.297C10.5145 68.297 12.4584 68.9171 13.607 70.1572H13.6954V68.297H17.9366V68.1198ZM29.5114 68.1198C34.7245 68.1198 38.4355 71.7517 38.4355 76.5351C38.4355 81.3186 34.7245 84.9505 29.5114 84.9505C24.3867 84.9505 20.5873 81.3186 20.5873 76.5351C20.5873 71.7517 24.2983 68.1198 29.5114 68.1198ZM56.6372 68.1198C61.9387 68.1198 65.2079 71.9289 65.2079 76.6237V77.8639H52.396C52.4844 79.5469 54.5166 81.23 57.1673 81.23C58.9345 81.23 60.1715 80.7871 61.4969 79.5469L64.501 81.6729C63.264 83.2674 60.79 84.8619 57.4324 84.8619C51.8659 84.8619 48.1549 81.5843 48.1549 76.5351C47.9782 71.6631 51.6008 68.1198 56.6372 68.1198ZM72.0114 63.3364V74.7635H72.0998L79.2567 68.0312H85L77.5779 75.0292L84.9116 84.7733H79.7869L74.7505 77.6867H74.6621L72.0114 80.2556V84.7733H67.7703V63.2478H72.0114V63.3364ZM29.5114 72.0174C26.7723 72.0174 25.0052 73.9663 25.0052 76.5351C25.0052 79.104 26.7723 81.0528 29.5114 81.0528C32.2505 81.0528 34.0177 79.104 34.0177 76.5351C34.0177 73.9663 32.2505 72.0174 29.5114 72.0174ZM9.18917 72.0174C6.27337 72.0174 4.41786 73.7891 4.41786 76.358C4.41786 79.1926 6.18501 80.8757 9.01246 80.8757C11.5748 80.8757 13.5187 79.2812 13.5187 77.3324V75.4722C13.5187 73.7005 11.5748 72.0174 9.18917 72.0174ZM56.7256 71.7517C54.3399 71.7517 52.6611 72.9919 52.4844 74.8521H60.9667C60.7016 72.9033 59.0229 71.7517 56.7256 71.7517Z" fill="black"/>
<path fill-rule="evenodd" clip-rule="evenodd" d="M42.6767 0C58.316 0 70.9511 12.6673 70.8628 28.4349C70.8628 40.2163 63.7941 50.3147 53.5447 54.6553C53.0145 54.921 52.2193 55.0982 51.5124 55.0982C48.5966 55.0982 46.211 52.7064 46.211 49.7832C46.211 47.5687 47.5364 45.7084 49.4802 44.9112L49.8336 44.734C56.0187 41.988 60.2598 35.7872 60.2598 28.5235C60.2598 18.6909 52.3077 10.807 42.5883 10.807C32.869 10.807 24.9168 18.7794 24.9168 28.5235C24.9168 35.8758 29.423 42.1652 35.7848 44.9112L36.0499 44.9998C37.817 45.8856 39.054 47.6573 39.054 49.7832C39.054 52.7064 36.6684 55.0982 33.7526 55.0982C33.0457 55.0982 32.2505 54.921 31.7203 54.6553C21.4709 50.2261 14.4023 40.2163 14.4023 28.4349C14.3139 12.6673 27.0374 0 42.6767 0ZM42.6767 17.7165C48.5083 17.7165 53.2796 22.4999 53.2796 28.3463C53.2796 34.1928 48.5083 38.9762 42.6767 38.9762C36.8451 38.9762 32.0738 34.1928 32.0738 28.3463C32.0738 22.4999 36.7567 17.7165 42.6767 17.7165Z" fill="#00AA13"/>
</g>
<defs>
<clipPath id="clip0_24_42">
<rect width="85" height="92.3913" fill="white"/>
</clipPath>
</defs>
</svg>
