<svg width="170" height="53" viewBox="0 0 170 53" fill="none" xmlns="http://www.w3.org/2000/svg">
<g clip-path="url(#clip0_24_26)">
<path d="M21.2652 18.9114V24.5727H34.9964C34.6319 27.7045 33.5382 30.1136 31.837 31.6795C29.8928 33.6068 26.7334 35.775 21.2652 35.775C12.8806 35.775 6.3188 29.0295 6.3188 20.7182C6.3188 12.4068 12.7591 5.66136 21.2652 5.66136C25.7613 5.66136 29.1637 7.46818 31.594 9.75682L35.604 5.78182C32.2016 2.52955 27.584 0 21.2652 0C9.72123 0 0 9.275 0 20.7182C0 32.1614 9.72123 41.4364 21.2652 41.4364C27.4625 41.4364 32.2016 39.3886 35.847 35.6545C39.614 31.9205 40.8292 26.6205 40.8292 22.4045C40.8292 21.0795 40.7076 19.875 40.5861 18.9114H21.2652Z" fill="#4285F4"/>
<path d="M57.8413 14.2136C50.4288 14.2136 44.2316 19.875 44.2316 27.5841C44.2316 35.2932 50.3073 40.9545 57.8413 40.9545C65.3752 40.9545 71.451 35.4136 71.451 27.7045C71.451 19.875 65.3752 14.2136 57.8413 14.2136ZM57.8413 35.775C53.7098 35.775 50.1858 32.4023 50.1858 27.7045C50.1858 22.8864 53.7098 19.6341 57.8413 19.6341C61.9728 19.6341 65.4968 22.8864 65.4968 27.7045C65.4968 32.4023 61.9728 35.775 57.8413 35.775Z" fill="#EA4335"/>
<path d="M124.31 17.225H124.067C122.731 15.6591 120.179 14.2136 116.898 14.2136C110.093 14.2136 104.26 19.9954 104.26 27.5841C104.26 35.0523 110.093 40.9545 116.898 40.9545C120.179 40.9545 122.731 39.5091 124.067 37.9432H124.31V39.8704C124.31 44.9295 121.515 47.7 117.141 47.7C113.495 47.7 111.308 45.1704 110.336 42.8818L105.232 45.05C106.69 48.5432 110.701 53 117.262 53C124.189 53 130.143 48.9045 130.143 39.0273V14.9363H124.553V17.225H124.31ZM117.505 35.775C113.374 35.775 110.336 32.2818 110.336 27.7045C110.336 23.0068 113.495 19.6341 117.505 19.6341C121.515 19.6341 124.675 23.1273 124.675 27.825C124.796 32.4023 121.637 35.775 117.505 35.775Z" fill="#4285F4"/>
<path d="M88.0986 14.2136C80.6862 14.2136 74.4889 19.875 74.4889 27.5841C74.4889 35.2932 80.5647 40.9545 88.0986 40.9545C95.6326 40.9545 101.708 35.4136 101.708 27.7045C101.708 19.875 95.6326 14.2136 88.0986 14.2136ZM88.0986 35.775C83.9671 35.775 80.4431 32.4023 80.4431 27.7045C80.4431 22.8864 83.9671 19.6341 88.0986 19.6341C92.2301 19.6341 95.7541 22.8864 95.7541 27.7045C95.7541 32.4023 92.2301 35.775 88.0986 35.775Z" fill="#FBBC05"/>
<path d="M134.639 0.602295H140.472V41.075H134.639V0.602295Z" fill="#34A853"/>
<path d="M158.456 35.775C155.418 35.775 153.352 34.45 151.894 31.6795L170 24.3318L169.392 22.7659C168.299 19.7545 164.775 14.2136 157.848 14.2136C150.922 14.2136 145.089 19.6341 145.089 27.5841C145.089 35.0523 150.801 40.9545 158.456 40.9545C164.653 40.9545 168.177 37.2204 169.757 35.0523L165.139 32.0409C163.56 34.3295 161.494 35.775 158.456 35.775ZM158.092 19.2727C160.522 19.2727 162.588 20.4773 163.195 22.1636L151.044 27.2227C150.922 21.6818 155.054 19.2727 158.092 19.2727Z" fill="#EA4335"/>
</g>
<defs>
<clipPath id="clip0_24_26">
<rect width="170" height="53" fill="white"/>
</clipPath>
</defs>
</svg>
