<svg width="75" height="41" viewBox="0 0 75 41" fill="none" xmlns="http://www.w3.org/2000/svg">
<path d="M14.9743 10.9791H10.9938C10.9408 10.5744 10.832 10.2091 10.6675 9.88335C10.5029 9.55747 10.2854 9.27886 10.0147 9.04761C9.74397 8.81636 9.42293 8.64033 9.05145 8.51943C8.68521 8.39336 8.27922 8.33027 7.83342 8.33027C7.04265 8.33027 6.36067 8.52212 5.7875 8.90571C5.21963 9.2894 4.78178 9.84385 4.47397 10.5691C4.17145 11.2944 4.0202 12.1722 4.0202 13.2022C4.0202 14.2744 4.17411 15.1731 4.48193 15.8984C4.79506 16.6185 5.2329 17.1624 5.79546 17.5303C6.36332 17.8929 7.03468 18.0743 7.80954 18.0743C8.24473 18.0743 8.64009 18.0191 8.99569 17.9087C9.35661 17.7984 9.67233 17.6381 9.94302 17.4278C10.219 17.2124 10.4445 16.9522 10.6197 16.6474C10.8001 16.3373 10.9248 15.9878 10.9938 15.5988L14.9743 15.6225C14.9052 16.3373 14.6956 17.0416 14.3454 17.7353C14.0004 18.4291 13.5253 19.0624 12.9204 19.6353C12.3154 20.2028 11.5776 20.6548 10.7073 20.9912C9.84223 21.3275 8.84979 21.4957 7.72993 21.4957C6.25453 21.4957 4.93304 21.1751 3.76545 20.534C2.60318 19.8875 1.68504 18.9468 1.01102 17.7116C0.337011 16.4766 0 14.9734 0 13.2022C0 11.4259 0.342316 9.92007 1.02694 8.68501C1.71157 7.44995 2.63768 6.51181 3.80526 5.8706C4.97285 5.22939 6.28106 4.90879 7.72993 4.90879C8.71706 4.90879 9.62992 5.04541 10.4684 5.31875C11.3069 5.58681 12.0447 5.98096 12.6815 6.50127C13.3184 7.01631 13.8358 7.64966 14.2339 8.40122C14.6319 9.15278 14.8787 10.0121 14.9743 10.9791ZM17.6497 21.275H13.4146L18.9155 5.12959H24.1617L29.6626 21.275H25.4274L21.5983 9.19746H21.4709L17.6497 21.275ZM17.0845 14.9209H25.9368V17.8851H17.0845V14.9209Z" fill="black"/>
<path d="M49.6806 21.275V5.12959H61.0487V8.29873H53.6213V11.6098H60.4675V14.7869H53.6213V18.1059H61.0487V21.275H49.6806ZM61.2747 21.275V5.12959H68.0096C69.2302 5.12959 70.2837 5.34761 71.17 5.78384C72.0616 6.2148 72.7489 6.83501 73.2319 7.64439C73.7148 8.44849 73.9562 9.40244 73.9562 10.5062C73.9562 11.6256 73.7095 12.5769 73.2159 13.36C72.7223 14.1378 72.0218 14.7316 71.1143 15.1416C70.2067 15.5463 69.1321 15.7487 67.8901 15.7487H63.6312V12.6741H67.1577C67.7522 12.6741 68.2484 12.5979 68.6465 12.4454C69.0498 12.2878 69.3549 12.0513 69.5619 11.7359C69.7689 11.4153 69.8724 11.0054 69.8724 10.5062C69.8724 10.0068 69.7689 9.59429 69.5619 9.26841C69.3549 8.93726 69.0498 8.69028 68.6465 8.52739C68.2431 8.35913 67.7469 8.27505 67.1577 8.27505H65.2153V21.275H61.2747ZM70.4535 13.896L74.5135 21.275H70.2147L66.2343 13.896H70.4535Z" fill="black"/>
<path fill-rule="evenodd" clip-rule="evenodd" d="M38.9013 24.8798C41.7466 25.2297 44.6871 24.8001 47.085 23.2437C53.117 19.8875 54.2152 11.9272 50.5471 6.36705C46.8792 0.80697 39.3548 -0.755633 33.7401 2.87684C28.1255 6.50922 26.5476 13.9606 30.2157 19.5207C31.8479 21.9949 34.243 23.6772 36.8948 24.4631L34.972 25.2827L32.9349 34.9029L38.2924 36.0155L40.3296 26.3953L38.9013 24.8798ZM32.5616 18.003C35.3831 22.2799 41.1713 23.482 45.4901 20.6878C49.0632 17.5405 51.0228 12.1618 48.2012 7.88479C45.3797 3.60787 39.5917 2.40583 35.2727 5.19998C30.9539 7.99413 29.7401 13.726 32.5616 18.003Z" fill="black"/>
<path d="M32.5515 36.7133L37.909 37.8259L37.5414 39.562C37.3346 40.5389 36.3673 41.1646 35.3816 40.9593L33.5949 40.5883C32.6084 40.3834 31.9765 39.4254 32.1839 38.4494L32.5515 36.7133Z" fill="black"/>
<mask id="mask0_85_154" style="mask-type:luminance" maskUnits="userSpaceOnUse" x="26" y="0" width="27" height="26">
<path d="M52.0932 12.568L38.7203 0L26.029 13.2431L39.4019 25.8111L52.0932 12.568Z" fill="white"/>
</mask>
<g mask="url(#mask0_85_154)">
<path d="M38.5288 13.9972C38.8613 14.3098 39.3056 14.4786 39.7638 14.4667C40.2221 14.4549 40.6568 14.2632 40.9723 13.9339C41.2879 13.6046 41.4584 13.1647 41.4464 12.7109C41.4345 12.2571 41.241 11.8266 40.9084 11.5141C40.5759 11.2017 40.1317 11.0328 39.6734 11.0446C39.2152 11.0565 38.7804 11.2482 38.4649 11.5774C38.1494 11.9067 37.9788 12.3466 37.9908 12.8004C38.0028 13.2542 38.1964 13.6847 38.5288 13.9972Z" fill="black"/>
<path d="M33.8607 15.437L26.4503 21.7673C26.2676 21.9133 26.1509 22.1252 26.126 22.3564C26.1011 22.5876 26.1699 22.8191 26.3174 23C26.4649 23.181 26.6789 23.2964 26.9123 23.3211C27.1457 23.3458 27.3795 23.2776 27.5622 23.1317L32.0981 19.7412C32.2266 19.644 32.3857 19.5955 32.547 19.6041C32.7084 19.6127 32.8613 19.6778 32.9786 19.788C33.0958 19.8981 33.1696 20.046 33.1866 20.2051C33.2037 20.3642 33.163 20.5242 33.0718 20.6563L29.8899 25.3193C29.7522 25.5075 29.6957 25.7423 29.7328 25.9719C29.7699 26.2015 29.8976 26.4071 30.0877 26.5434C30.2778 26.6798 30.5149 26.7357 30.7467 26.699C30.9785 26.6623 31.1862 26.5358 31.3239 26.3475L37.321 18.689C37.4775 18.49 37.6765 18.3279 37.9037 18.214C38.131 18.1 38.3808 18.0373 38.6354 18.0302L43.2758 17.3321C43.5099 17.2923 43.7193 17.1642 43.86 16.9748C44.0005 16.7852 44.0615 16.5491 44.0299 16.316C43.9983 16.0829 43.8766 15.871 43.6905 15.7249C43.5044 15.5789 43.2682 15.51 43.0319 15.5328L39.2283 15.976C39.0711 16 38.9104 15.9775 38.766 15.9113C38.5152 15.7919 38.0706 15.5345 37.5365 15.0326C37.0017 14.5299 36.7198 14.1046 36.5855 13.8619C36.5116 13.7228 36.4808 13.5653 36.4968 13.409L36.7449 9.62425C36.7601 9.38671 36.6806 9.15278 36.5234 8.97278C36.3661 8.79277 36.1438 8.68103 35.9043 8.66161C35.6648 8.64227 35.4271 8.71674 35.2425 8.86908C35.0578 9.02143 34.941 9.23945 34.9169 9.47625L34.4555 14.1019C34.4698 14.6124 34.2521 15.1032 33.8607 15.437Z" fill="black"/>
</g>
</svg>
