<svg width="187" height="40" viewBox="0 0 187 40" fill="none" xmlns="http://www.w3.org/2000/svg">
<g clip-path="url(#clip0_24_56)">
<path d="M66.0073 23.0389L64.8927 26.2017H64.7998C64.6141 25.4885 64.2735 24.4032 63.7162 23.1009L57.7409 8.06212H51.8894V32.0311H55.7594V17.2404C55.7594 16.3102 55.7594 15.2559 55.7285 13.9536C55.6975 13.3024 55.6356 12.8063 55.6046 12.4342H55.6975C55.8833 13.3644 56.1 14.0466 56.2548 14.4807L63.4376 31.9691H66.1621L73.2829 14.3257C73.4377 13.9226 73.5925 13.1164 73.7473 12.4342H73.8402C73.7473 14.2017 73.6854 15.7831 73.6545 16.7443V31.9381H77.7722V8.00011H72.1374L66.0073 23.0389ZM81.6732 14.7598H85.698V31.9381H81.6732V14.7598ZM83.7166 7.50398C83.0354 7.50398 82.4781 7.75205 82.0137 8.18615C81.5493 8.62026 81.3017 9.1784 81.3017 9.86057C81.3017 10.5117 81.5493 11.0699 82.0137 11.504C82.4781 11.9381 83.0354 12.1551 83.7166 12.1551C84.3977 12.1551 84.9859 11.9071 85.4194 11.504C85.8838 11.0699 86.1315 10.5117 86.1315 9.86057C86.1315 9.20941 85.8838 8.65127 85.4194 8.18615C85.0169 7.75205 84.4286 7.50398 83.7166 7.50398ZM99.9707 14.6048C99.2276 14.4497 98.4536 14.3567 97.7106 14.3567C95.8839 14.3567 94.2121 14.7598 92.8189 15.566C91.4257 16.3722 90.3111 17.4885 89.599 18.8838C88.856 20.3102 88.4844 21.9536 88.4844 23.8451C88.4844 25.4885 88.856 26.9458 89.568 28.2792C90.2801 29.5815 91.2709 30.6358 92.6022 31.3489C93.8715 32.0621 95.3576 32.4342 97.0295 32.4342C98.949 32.4342 100.59 32.0311 101.89 31.2869L101.921 31.2559V27.535L101.766 27.659C101.178 28.0931 100.497 28.4652 99.8159 28.6823C99.1038 28.9303 98.4536 29.0544 97.8964 29.0544C96.2864 29.0544 95.0171 28.5893 94.1192 27.566C93.1904 26.5738 92.726 25.2094 92.726 23.504C92.726 21.7365 93.1904 20.3412 94.1502 19.3179C95.1099 18.2947 96.3793 17.7675 97.9273 17.7675C99.2276 17.7675 100.559 18.2017 101.766 19.0699L101.921 19.1939V15.2559L101.89 15.2249C101.364 15.0079 100.776 14.7598 99.9707 14.6048ZM113.253 14.4807C112.262 14.4807 111.333 14.7908 110.528 15.442C109.847 16.0001 109.383 16.8063 108.98 17.7675H108.949V14.7598H104.924V31.9381H108.949V23.1629C108.949 21.6745 109.259 20.4342 109.94 19.535C110.621 18.6048 111.488 18.1396 112.541 18.1396C112.912 18.1396 113.284 18.2327 113.748 18.2947C114.181 18.4187 114.491 18.5427 114.708 18.6978L114.863 18.8218V14.7908L114.77 14.7598C114.491 14.5738 113.934 14.4807 113.253 14.4807ZM124.213 14.3877C121.395 14.3877 119.135 15.2249 117.556 16.8683C115.946 18.5117 115.172 20.7753 115.172 23.628C115.172 26.2947 115.977 28.4652 117.525 30.0466C119.073 31.597 121.178 32.4032 123.81 32.4032C126.566 32.4032 128.764 31.566 130.343 29.8916C131.953 28.2172 132.727 25.9846 132.727 23.2249C132.727 20.4962 131.984 18.3257 130.467 16.7443C129.011 15.1629 126.875 14.3877 124.213 14.3877ZM127.432 27.597C126.689 28.5582 125.513 29.0234 124.058 29.0234C122.603 29.0234 121.426 28.5582 120.59 27.535C119.754 26.5738 119.352 25.1784 119.352 23.411C119.352 21.5815 119.785 20.1862 120.59 19.1939C121.426 18.2017 122.572 17.7055 124.027 17.7055C125.451 17.7055 126.566 18.1707 127.371 19.1319C128.175 20.0931 128.609 21.4885 128.609 23.3179C128.547 25.1784 128.206 26.6358 127.432 27.597ZM141.705 21.8916C140.436 21.3644 139.631 20.9613 139.259 20.6203C138.95 20.3102 138.795 19.8761 138.795 19.3179C138.795 18.8528 138.981 18.3877 139.445 18.0776C139.909 17.7675 140.436 17.6125 141.21 17.6125C141.891 17.6125 142.603 17.7365 143.284 17.9226C143.965 18.1086 144.584 18.3877 145.08 18.7598L145.235 18.8838V15.1009L145.142 15.0699C144.677 14.8838 144.058 14.6978 143.315 14.5427C142.572 14.4187 141.891 14.3567 141.334 14.3567C139.414 14.3567 137.835 14.8218 136.597 15.8451C135.358 16.8063 134.77 18.1086 134.77 19.628C134.77 20.4342 134.894 21.1474 135.173 21.7365C135.451 22.3257 135.854 22.8838 136.411 23.3489C136.968 23.7831 137.773 24.2792 138.888 24.7443C139.817 25.1474 140.529 25.4575 140.962 25.7055C141.396 25.9536 141.674 26.2327 141.891 26.4497C142.046 26.6978 142.139 27.0079 142.139 27.411C142.139 28.5582 141.272 29.1164 139.507 29.1164C138.826 29.1164 138.114 28.9924 137.278 28.7133C136.442 28.4342 135.668 28.0311 135.018 27.566L134.863 27.442V31.38L134.956 31.411C135.544 31.69 136.256 31.8761 137.123 32.0931C137.99 32.2482 138.764 32.3722 139.445 32.3722C141.519 32.3722 143.222 31.9071 144.43 30.8838C145.668 29.8916 146.318 28.6203 146.318 26.9769C146.318 25.8296 146.009 24.8063 145.327 24.0311C144.43 23.2869 143.315 22.5117 141.705 21.8916ZM156.938 14.3877C154.12 14.3877 151.86 15.2249 150.281 16.8683C148.702 18.5117 147.897 20.7753 147.897 23.628C147.897 26.2947 148.702 28.4652 150.25 30.0466C151.798 31.597 153.903 32.4032 156.535 32.4032C159.291 32.4032 161.489 31.566 163.068 29.8916C164.678 28.2172 165.452 25.9846 165.452 23.2249C165.452 20.4962 164.709 18.3257 163.192 16.7443C161.736 15.1629 159.6 14.3877 156.938 14.3877ZM160.126 27.597C159.383 28.5582 158.207 29.0234 156.752 29.0234C155.266 29.0234 154.12 28.5582 153.284 27.535C152.448 26.5738 152.046 25.1784 152.046 23.411C152.046 21.5815 152.479 20.1862 153.284 19.1939C154.12 18.2017 155.266 17.7055 156.721 17.7055C158.114 17.7055 159.26 18.1707 160.065 19.1319C160.87 20.0931 161.303 21.4885 161.303 23.3179C161.303 25.1784 160.9 26.6358 160.126 27.597ZM186.969 18.0776V14.7598H182.913V9.67453L182.789 9.70553L178.95 10.8528L178.857 10.8838V14.7598H172.789V12.5893C172.789 11.597 173.037 10.8218 173.47 10.3257C173.904 9.82956 174.554 9.5815 175.359 9.5815C175.916 9.5815 176.504 9.70553 177.155 9.9846L177.309 10.0776V6.57375L177.217 6.54274C176.659 6.3567 175.916 6.23267 174.956 6.23267C173.749 6.23267 172.696 6.51174 171.737 6.97685C170.777 7.50398 170.065 8.21716 169.538 9.1784C169.012 10.1086 168.733 11.1629 168.733 12.3722V14.7598H165.916V18.0466H168.733V31.9381H172.789V18.0776H178.857V26.9148C178.857 30.5427 180.56 32.3722 183.966 32.3722C184.523 32.3722 185.111 32.2792 185.669 32.1862C186.257 32.0621 186.69 31.9071 186.938 31.7831L186.969 31.752V28.4342L186.814 28.5582C186.567 28.7133 186.35 28.8373 185.978 28.9303C185.669 29.0234 185.39 29.0544 185.173 29.0544C184.368 29.0544 183.811 28.8683 183.409 28.4032C183.037 27.9691 182.851 27.2559 182.851 26.2017V18.0776H186.969Z" fill="#737373"/>
<path d="M0 0H18.9786V19.0078H0V0Z" fill="#F25022"/>
<path d="M20.9601 0H39.9387V19.0078H20.9601V0Z" fill="#7FBA00"/>
<path d="M0 20.9922H18.9786V39.9999H0V20.9922Z" fill="#00A4EF"/>
<path d="M20.9601 20.9922H39.9387V39.9999H20.9601V20.9922Z" fill="#FFB900"/>
</g>
<defs>
<clipPath id="clip0_24_56">
<rect width="187" height="40" fill="white"/>
</clipPath>
</defs>
</svg>
