<svg width="218" height="40" viewBox="0 0 218 40" fill="none" xmlns="http://www.w3.org/2000/svg">
<g clip-path="url(#clip0_24_62)">
<path d="M215.172 32.074V31.4814H215.544C215.73 31.4814 216.028 31.5184 216.028 31.7407C216.028 31.9629 215.879 32.074 215.618 32.074H215.172ZM215.172 32.4814H215.432L216.028 33.5184H216.66L215.99 32.4444C216.325 32.4814 216.586 32.2221 216.623 31.8888V31.8147C216.623 31.2221 216.214 31.074 215.544 31.074H214.576V33.5555H215.135V32.4814M218 32.2962C218 30.8147 216.846 29.9629 215.581 29.9629C214.316 29.9629 213.162 30.8147 213.162 32.2962C213.162 33.7777 214.316 34.6296 215.581 34.6296C216.846 34.6296 218 33.7777 218 32.2962ZM217.293 32.2962C217.33 33.2221 216.586 34.037 215.656 34.074H215.581C214.614 34.111 213.758 33.3333 213.72 32.3703C213.683 31.4073 214.465 30.5555 215.432 30.5184C216.4 30.4814 217.256 31.2592 217.293 32.2221C217.293 32.2592 217.293 32.2592 217.293 32.2962Z" fill="black"/>
<path d="M129.319 7.55559V33.8149H136.762V7.55559H129.319ZM70.7067 7.51855V33.8149H78.224V13.4074L84.0666 13.4445C86.0017 13.4445 87.3414 13.926 88.2346 14.8889C89.4254 16.1482 89.872 18.1482 89.872 21.8519V33.8519H97.1659V19.2963C97.1659 8.92596 90.5418 7.51855 84.0294 7.51855C84.1038 7.51855 70.7067 7.51855 70.7067 7.51855ZM141.339 7.55559V33.8149H153.434C159.872 33.8149 161.993 32.7408 164.226 30.3704C165.826 28.7037 166.868 25 166.868 20.963C166.868 17.2593 166.012 13.963 164.449 11.926C161.732 8.2593 157.75 7.55559 151.796 7.55559C151.759 7.55559 141.339 7.55559 141.339 7.55559ZM148.707 13.2593H151.908C156.56 13.2593 159.574 15.3334 159.574 20.7037C159.574 26.0741 156.56 28.1852 151.908 28.1852H148.707V13.2593ZM118.601 7.55559L112.386 28.3704L106.432 7.55559H98.394L106.879 33.8149H117.596L126.193 7.55559H118.601ZM170.329 33.8519H177.772V7.55559H170.329V33.8519ZM191.243 7.55559L180.86 33.8149H188.192L189.829 29.1482H202.147L203.71 33.7778H211.711L201.216 7.55559H191.243ZM196.044 12.3704L200.584 24.6297H191.429C191.392 24.6297 196.044 12.3704 196.044 12.3704Z" fill="black"/>
<path d="M22.6634 11.9259V8.33333C23.0355 8.2963 23.3704 8.2963 23.7426 8.2963C33.6787 8 40.1912 16.8148 40.1912 16.8148C40.1912 16.8148 33.1577 26.4815 25.6033 26.4815C24.5985 26.4815 23.6309 26.3333 22.6634 26V15.0741C26.5336 15.5556 27.3151 17.2222 29.6224 21.0741L34.7952 16.7407C34.7952 16.7407 30.9993 11.8148 24.6729 11.8148C24.0031 11.8148 23.3332 11.8519 22.6634 11.9259ZM22.6634 0V5.37037L23.7426 5.2963C37.549 4.81481 46.5548 16.5556 46.5548 16.5556C46.5548 16.5556 36.2093 29.1111 25.4544 29.1111C24.5241 29.1111 23.5937 29.037 22.6634 28.8519V32.1852C23.4076 32.2593 24.1891 32.3333 24.9706 32.3333C34.9812 32.3333 42.238 27.2222 49.2714 21.2222C50.4251 22.1481 55.1885 24.4074 56.1932 25.3704C49.5319 30.9259 33.9764 35.4074 25.1567 35.4074C24.3008 35.4074 23.5193 35.3704 22.7006 35.2593V40H60.7706V0H22.6634ZM22.6634 26.037V28.8889C13.3971 27.2222 10.8293 17.6296 10.8293 17.6296C10.8293 17.6296 15.295 12.7407 22.6634 11.9259V15.037H22.6262C18.7559 14.5556 15.7043 18.1852 15.7043 18.1852C15.7043 18.1852 17.4534 24.2593 22.6634 26.037ZM6.21475 17.2222C6.21475 17.2222 11.6852 9.14815 22.6634 8.33333V5.40741C10.4944 6.37037 0 16.5926 0 16.5926C0 16.5926 5.95425 33.7407 22.6634 35.2963V32.1852C10.3827 30.6667 6.21475 17.2222 6.21475 17.2222Z" fill="#76B900"/>
</g>
<defs>
<clipPath id="clip0_24_62">
<rect width="218" height="40" fill="white"/>
</clipPath>
</defs>
</svg>
