<svg width="150" height="26" viewBox="0 0 150 26" fill="none" xmlns="http://www.w3.org/2000/svg">
<path fill-rule="evenodd" clip-rule="evenodd" d="M72.4811 16.3786C72.4811 19.3707 70.612 21.3887 68.0364 21.3887C65.4607 21.3887 63.517 19.4641 63.517 16.3786C63.517 13.2931 65.3984 11.3683 68.0364 11.3683C70.6744 11.3683 72.4811 13.3865 72.4811 16.3786ZM68.0365 7.1443C62.5096 7.13579 58.6381 11.0877 58.6456 16.3787C58.6532 21.6698 62.4468 25.6522 68.0365 25.65C73.6262 25.6478 77.3395 21.6101 77.3398 16.3787C77.3402 11.1474 73.5634 7.15281 68.0365 7.1443Z" fill="#FF0025"/>
<path fill-rule="evenodd" clip-rule="evenodd" d="M24.0149 7.14431C21.3528 7.13934 19.3522 7.96479 17.6354 9.61664C15.9186 11.2685 14.948 13.531 14.9519 16.6532C14.9557 19.7754 16.2725 22.1387 17.9812 23.5186C19.6899 24.8985 21.7319 25.6504 24.6071 25.6501C27.4822 25.6497 29.7049 24.6064 30.8413 23.897V19.6655C30.0528 20.3346 27.6442 21.6444 25.2302 21.6444C22.8163 21.6444 20.3238 20.838 19.7108 17.8485H31.9296C31.9887 17.3791 32.0963 16.6723 32.0938 15.9299C32.0857 13.5158 31.5631 11.9132 30.3261 10.197C29.0892 8.48076 26.6769 7.14928 24.0149 7.14431ZM23.784 10.8198C24.9093 10.8198 25.6899 11.1755 26.292 11.808C26.8942 12.4404 27.3044 13.3834 27.3701 14.3974H19.7985C20.0055 13.5095 20.2446 12.8722 20.9115 12.0939C21.5783 11.3156 22.6586 10.8198 23.784 10.8198Z" fill="#FF0025"/>
<path fill-rule="evenodd" clip-rule="evenodd" d="M34.5396 0V22.2932C34.5396 24.5985 36.1818 25.65 37.7905 25.65C39.3991 25.65 40.4195 25.1142 40.4195 25.1142C40.4195 25.1142 39.4384 24.3198 39.4342 20.7892C39.4301 17.365 39.4338 4.49092 39.4342 2.96798C39.4346 1.44504 38.4631 0 36.6715 0H34.5396Z" fill="#FF0025"/>
<path fill-rule="evenodd" clip-rule="evenodd" d="M0 3.35622V5.87352H7.11014V22.2931C7.11014 24.5984 8.75242 25.6499 10.3611 25.6499C11.9697 25.6499 12.99 25.1141 12.99 25.1141C12.99 25.1141 12.009 24.3197 12.0048 20.7891C12.0007 17.3649 12.0044 6.56754 12.0048 5.04461C12.0052 3.52167 10.2302 0.779532 7.30958 0.779541L2.79569 0.779555C1.31628 0.77956 0 1.98476 0 3.35622ZM10.4421 0.779541C10.3489 0.779541 10.2739 0.854577 10.2739 0.947844C10.2739 1.04111 10.3674 1.1103 10.4421 1.16608C10.7518 1.39723 11.7169 2.08159 12.1778 3.0179C12.6387 3.95421 12.6497 4.80391 12.9491 5.29474C13.2486 5.78557 13.7373 5.87352 14.2541 5.87352H17.9702C18.7913 5.87352 19.1139 5.32154 19.1139 4.66683V0.779541H10.4421Z" fill="#FF0025"/>
<path fill-rule="evenodd" clip-rule="evenodd" d="M42.6437 0V25.357H47.5383C47.5382 22.7257 47.5384 20.0901 47.5383 17.3401C48.5962 18.5628 51.4876 21.9622 51.8551 22.3892C53.1658 23.9121 54.106 25.357 56.2503 25.357H60.165C60.165 25.357 55.4307 19.8854 54.9957 19.3799C53.8208 18.0148 52.923 16.7132 51.2054 16.4579V16.2803C52.6858 15.9443 53.5462 14.7019 54.6139 13.4019C55.029 12.8964 59.4603 7.42482 59.4603 7.42482H53.9171L47.5383 15.2107C47.5383 15.2107 47.5379 4.62979 47.5383 0L42.6437 0Z" fill="#FF0025"/>
<path fill-rule="evenodd" clip-rule="evenodd" d="M89.0839 7.14429C87.1327 7.14429 85.8458 8.01006 85.2644 8.6795C84.683 9.34893 84.7779 9.53336 84.6034 9.66172C84.2704 8.35207 83.3822 7.42731 81.8578 7.42731H79.7258V25.3571H84.6205V16.0994C84.6205 13.1955 85.959 11.3174 87.8563 11.3229C89.7535 11.3284 90.8045 12.2956 90.8045 14.5396V25.3571H95.6992V16.1759C95.6992 13.5661 96.7548 11.3103 99.01 11.3229C101.265 11.3354 101.983 12.8144 101.983 14.7518V25.3571H106.84V13.4628C106.84 11.4356 106.241 9.93553 105.016 8.80686C103.791 7.67819 102.452 7.14429 100.25 7.14429C98.0475 7.14429 96.4904 8.05612 95.2932 9.35683C95.0843 9.58382 94.8871 9.89081 94.7032 10.1462C94.3976 9.49611 93.8611 8.78418 93.4014 8.40157C92.248 7.4417 91.035 7.14429 89.0839 7.14429Z" fill="#FF0025"/>
<path fill-rule="evenodd" clip-rule="evenodd" d="M116.54 7.14431C113.579 7.139 111.983 8.06466 111.083 8.85631C110.184 9.64796 109.363 10.6509 109.356 12.8214C109.349 14.992 110.937 16.7827 114.071 17.7458C117.205 18.709 118.505 19.0411 118.494 20.0994C118.484 21.1577 117.703 21.8314 115.5 21.8314C113.296 21.8314 111.069 20.8522 109.465 19.4036V23.8471C110.663 24.7436 112.981 25.6497 115.749 25.6501C118.516 25.6505 120.185 24.9733 121.148 24.2099C122.11 23.4465 123.218 22.2353 123.21 19.8143C123.201 17.3934 121.58 15.8006 119.107 14.9353C116.635 14.0699 114.321 13.778 114.13 12.7671C113.939 11.7562 114.513 11.072 116.335 10.907C118.157 10.742 121.116 11.6811 122.118 12.675V8.56408C121.183 8.02288 119.502 7.14963 116.54 7.14431Z" fill="#FF0025"/>
<path fill-rule="evenodd" clip-rule="evenodd" d="M133.595 7.14431C130.933 7.13934 128.933 7.96479 127.216 9.61664C125.499 11.2685 124.529 13.531 124.532 16.6532C124.536 19.7754 125.853 22.1387 127.562 23.5186C129.27 24.8985 131.312 25.6504 134.188 25.6501C137.063 25.6497 139.285 24.6064 140.422 23.897V19.6655C139.633 20.3346 137.225 21.6444 134.811 21.6444C132.397 21.6444 129.904 20.838 129.291 17.8485H141.51C141.569 17.3791 141.677 16.6723 141.674 15.9299C141.666 13.5158 141.144 11.9132 139.907 10.197C138.67 8.48075 136.258 7.14928 133.595 7.14431ZM133.365 10.8198C134.49 10.8198 135.27 11.1755 135.873 11.808C136.475 12.4404 136.885 13.3834 136.951 14.3974H129.379C129.586 13.5095 129.825 12.8722 130.492 12.0939C131.159 11.3156 132.239 10.8198 133.365 10.8198Z" fill="#FF0025"/>
<path fill-rule="evenodd" clip-rule="evenodd" d="M144.12 0V22.2932C144.12 24.5985 145.762 25.65 147.371 25.65C148.98 25.65 150 25.1142 150 25.1142C150 25.1142 149.019 24.3198 149.015 20.7892C149.011 17.365 149.015 4.49092 149.015 2.96798C149.015 1.44504 148.044 0 146.252 0H144.12Z" fill="#FF0025"/>
</svg>
