<svg width="227" height="49" viewBox="0 0 227 49" fill="none" xmlns="http://www.w3.org/2000/svg">
<path fill-rule="evenodd" clip-rule="evenodd" d="M121.361 34.4518C118.893 36.9622 115.943 38.2252 112.522 38.2252C109.756 38.2252 107.406 37.6594 105.007 36.2603V30.5017C106.936 31.8148 109.36 33.0653 111.752 33.0653C116.74 33.0653 119.71 29.6217 119.71 24.7384C119.71 19.852 116.638 16.3052 111.647 16.3052C109.419 16.3052 107.612 17.1087 106.2 18.7203C104.687 20.4663 103.905 22.9626 103.905 26.2609V49H103.529C102.874 48.9984 102.225 48.8679 101.62 48.616C101.015 48.3641 100.466 47.9958 100.004 47.532C99.5419 47.0683 99.1758 46.5182 98.9265 45.9131C98.6773 45.3081 98.5498 44.66 98.5515 44.0057V25.409C98.5515 17.5166 103.36 11.1452 111.625 11.1452C115.704 11.1452 119.018 12.5443 121.531 15.3579C123.894 17.9856 125.063 21.3151 125.063 25.323C125.063 28.887 123.828 31.9367 121.361 34.4518ZM179.326 34.258C176.868 36.9044 173.705 38.2252 169.872 38.2252C165.825 38.2252 162.526 36.8246 160.016 34.0125C157.655 31.3521 156.484 28.0194 156.484 24.049C156.484 17.0196 161.89 11.1452 169.006 11.1452C171.751 11.1452 174.134 11.7267 176.541 13.0523V18.8672C174.612 17.5542 172.188 16.3036 169.796 16.3036C164.807 16.3036 161.836 19.7488 161.836 24.6336C161.836 29.4513 164.979 33.0668 169.899 33.0668C172.125 33.0668 173.96 32.229 175.426 30.5423C176.885 28.8651 177.643 26.4016 177.643 23.0939V4.99426C177.641 4.34004 177.769 3.69191 178.018 3.08687C178.267 2.48183 178.633 1.93172 179.095 1.46796C179.558 1.0042 180.107 0.635868 180.712 0.383995C181.316 0.132122 181.965 0.00164014 182.62 0L182.996 0V23.9427C182.996 28.1585 181.781 31.61 179.326 34.258ZM194.443 8.5895C193.881 9.22101 193.076 9.51176 192.094 9.51176C190.256 9.51176 188.941 8.15182 188.941 6.32137C188.941 4.44872 190.231 3.18413 192.093 3.18413C193.885 3.18413 195.246 4.5175 195.246 6.32137C195.246 7.21237 194.986 7.97987 194.443 8.5895ZM221.645 23.0939C221.645 20.9759 220.847 19.2986 219.244 18.0294C217.798 16.8867 215.993 16.3052 213.796 16.3052C208.951 16.3052 205.84 20.1052 205.84 24.7931C205.84 29.3028 209.139 33.0668 213.746 33.0668C216.951 33.0668 218.664 31.1879 220.493 28.8463V35.5944C219.561 36.2947 218.49 37.0591 217.398 37.5062C216.244 37.9907 214.866 38.2252 213.274 38.2252C205.569 38.2252 200.486 31.821 200.486 24.4211C200.486 20.621 201.662 17.4791 204.031 15.0297C206.544 12.4333 209.84 11.1452 213.876 11.1452C221.526 11.1452 227 15.5533 227 23.5176V37.6953H226.624C225.969 37.6937 225.32 37.5632 224.715 37.3112C224.11 37.0592 223.561 36.6908 223.098 36.2269C222.636 35.763 222.27 35.2127 222.02 34.6075C221.771 34.0022 221.644 33.3539 221.645 32.6995V23.0939ZM148.358 21.5714C147.682 19.4721 146.833 18.4389 144.882 17.3463C140.243 14.7452 135.676 16.9602 133.553 21.5511L148.358 21.5714ZM144.273 38.1455C140.854 38.8755 137.498 38.3128 134.224 36.4776C131.03 34.6878 128.893 32.0273 127.821 28.5103C125.654 21.3979 130.093 13.4728 137.234 11.5548C140.772 10.6028 144.167 11.0343 147.39 12.8413C152.745 15.8456 154.696 20.4913 154.356 26.4782L132.787 26.4328C133.105 28.8745 134.613 30.7846 136.733 31.9726C138.884 33.1778 140.86 33.467 142.693 32.8949C144.729 32.254 146.382 30.5861 147.725 29.0339L152.12 32.2477C150.328 35.4678 147.887 37.3749 144.273 38.1455ZM189.417 11.6767H194.77V37.6953H194.394C193.739 37.6937 193.09 37.5631 192.485 37.3112C191.88 37.0592 191.331 36.6907 190.869 36.2268C190.407 35.7629 190.041 35.2126 189.792 34.6074C189.542 34.0021 189.415 33.3538 189.417 32.6995V11.6767ZM7.83478 37.6938C2.59751 37.6938 1.57567e-05 34.1204 1.57567e-05 29.1308V10.1964C-0.00163119 9.542 0.125846 8.89366 0.37517 8.28843C0.624494 7.6832 0.990781 7.13292 1.45312 6.66901C1.91545 6.20511 2.46479 5.83666 3.06975 5.58471C3.67471 5.33276 4.32346 5.20223 4.97894 5.20059H5.35471V11.6767H14.3998V16.8351H5.35471V29.7279C5.35471 31.9195 6.32858 32.5354 8.41722 32.5354H14.3982V37.6938H7.83478ZM38.9265 34.4065C36.2804 36.9497 33.1021 38.2252 29.4101 38.2252C25.7511 38.2252 22.5899 36.9481 19.9455 34.4065C17.2916 31.8523 15.9686 28.6025 15.9686 24.6852C15.9686 17.0446 21.7836 11.1452 29.4101 11.1452C33.0692 11.1452 36.2397 12.4317 38.8998 14.9937C41.5709 17.562 42.9049 20.8024 42.9049 24.6852C42.9049 28.6025 41.5803 31.8523 38.928 34.4065H38.9265ZM63.9589 17.9371C63.1729 19.258 62.5639 20.2068 62.1348 20.7789C61.6636 21.4011 61.197 21.8981 60.7351 22.242C64.4552 23.4488 65.8409 26.0342 65.8409 29.8874V37.6938H65.4651C64.1415 37.6904 62.8735 37.1624 61.9398 36.2259C61.0061 35.2893 60.4833 34.0209 60.4862 32.6995V30.4173C60.4862 27.9225 59.3714 26.2296 56.7379 26.2296H51.8717V37.6938H51.4959C50.1728 37.69 48.9053 37.1618 47.9722 36.2252C47.0391 35.2887 46.5168 34.0205 46.5201 32.6995V4.99426C46.5183 4.34012 46.6455 3.69202 46.8946 3.08699C47.1437 2.48195 47.5097 1.93183 47.9717 1.46805C48.4338 1.00427 48.9829 0.635917 49.5876 0.384025C50.1922 0.132133 50.8407 0.00163993 51.4959 0L51.8717 0V21.0181H53.4546C55.1925 21.0181 56.3355 20.421 56.9931 19.2924L61.4882 11.6783L67.5897 11.672L63.9558 17.9371H63.9589ZM91.5935 34.4065C88.9475 36.9497 85.7691 38.2252 82.0772 38.2252C78.4181 38.2252 75.2586 36.9481 72.6125 34.4065C69.9587 31.8523 68.6356 28.6025 68.6356 24.6852C68.6356 17.0446 74.4507 11.1452 82.0772 11.1452C85.7378 11.1452 88.9068 12.4317 91.5685 14.9937C94.238 17.562 95.572 20.8024 95.572 24.6852C95.572 28.6025 94.2458 31.8523 91.5935 34.4065ZM87.7294 18.6312C86.2545 17.0821 84.3803 16.3052 82.0772 16.3052C77.1499 16.3052 74.2017 19.9083 74.2017 24.6852C74.2017 29.3966 77.2204 33.0668 82.0772 33.0668C86.9355 33.0668 89.9527 29.3966 89.9527 24.6852C89.9527 22.1842 89.2042 20.1771 87.7294 18.6312ZM35.0639 18.6312C33.589 17.0821 31.7133 16.3052 29.4117 16.3052C24.4844 16.3052 21.5362 19.9083 21.5362 24.6852C21.5362 29.3966 24.5549 33.0668 29.4117 33.0668C34.2685 33.0668 37.2872 29.3966 37.2872 24.6852C37.2872 22.1842 36.5388 20.1771 35.0639 18.6312Z" fill="#03AC0E"/>
</svg>
